<?xml version="1.0" standalone="yes"?>

<svg version="1.1" viewBox="0.0 0.0 960.0 720.0" fill="none" stroke="none" stroke-linecap="square" stroke-miterlimit="10" xmlns="http://www.w3.org/2000/svg" xmlns:xlink="http://www.w3.org/1999/xlink"><clipPath id="p.0"><path d="m0 0l960.0 0l0 720.0l-960.0 0l0 -720.0z" clip-rule="nonzero"></path></clipPath><g clip-path="url(#p.0)"><path fill="#000000" fill-opacity="0.0" d="m0 0l960.0 0l0 720.0l-960.0 0z" fill-rule="nonzero"></path><path fill="#000000" fill-opacity="0.0" d="m391.13388 51.307076l0 0c27.622925 15.316116 32.664124 59.022995 11.259827 97.62205q-19.37793 34.944885 -38.75589 69.889755q-25.007874 -13.866135 -50.015747 -27.73227l0 0c-27.622925 -15.316132 -32.664154 -59.02301 -11.259857 -97.622055l0 0c21.404297 -38.59905 61.148743 -57.4736 88.77167 -42.15748z" fill-rule="nonzero"></path><path stroke="#ff9900" stroke-width="8.0" stroke-linejoin="round" stroke-linecap="butt" d="m391.13388 51.307076l0 0c27.622925 15.316116 32.664124 59.022995 11.259827 97.62205q-19.37793 34.944885 -38.75589 69.889755q-25.007874 -13.866135 -50.015747 -27.73227l0 0c-27.622925 -15.316132 -32.664154 -59.02301 -11.259857 -97.622055l0 0c21.404297 -38.59905 61.148743 -57.4736 88.77167 -42.15748z" fill-rule="nonzero"></path><path fill="#000000" fill-opacity="0.0" d="m555.1449 179.15419l0 0c-5.0357666 32.536972 -37.877625 54.457397 -73.35431 48.960632q-32.509644 -5.037033 -65.1304 -9.3559265q5.3976746 -29.694443 10.012299 -59.51021l0 0c5.035797 -32.536964 37.877625 -54.45739 73.35431 -48.960632l0 0c35.476685 5.4967575 60.15393 36.329178 55.118103 68.866135z" fill-rule="nonzero"></path><path stroke="#ff9900" stroke-width="8.0" stroke-linejoin="round" stroke-linecap="butt" d="m555.1449 179.15419l0 0c-5.0357666 32.536972 -37.877625 54.457397 -73.35431 48.960632q-32.509644 -5.037033 -65.1304 -9.3559265q5.3976746 -29.694443 10.012299 -59.51021l0 0c5.035797 -32.536964 37.877625 -54.45739 73.35431 -48.960632l0 0c35.476685 5.4967575 60.15393 36.329178 55.118103 68.866135z" fill-rule="nonzero"></path><path fill="#000000" fill-opacity="0.0" d="m181.12073 376.3176l0 0c0 -81.45984 85.770966 -147.49608 191.5748 -147.49608l0 0c105.80386 0 191.5748 66.03624 191.5748 147.49608l0 0c0 81.45981 -85.770935 147.49606 -191.5748 147.49606l0 0c-105.80383 0 -191.5748 -66.036255 -191.5748 -147.49606z" fill-rule="nonzero"></path><path stroke="#ff9900" stroke-width="8.0" stroke-linejoin="round" stroke-linecap="butt" d="m181.12073 376.3176l0 0c0 -81.45984 85.770966 -147.49608 191.5748 -147.49608l0 0c105.80386 0 191.5748 66.03624 191.5748 147.49608l0 0c0 81.45981 -85.770935 147.49606 -191.5748 147.49606l0 0c-105.80383 0 -191.5748 -66.036255 -191.5748 -147.49606z" fill-rule="nonzero"></path><path fill="#000000" fill-opacity="0.0" d="m345.2047 228.82152l-16.15747 289.60626" fill-rule="nonzero"></path><path stroke="#ff9900" stroke-width="8.0" stroke-linejoin="round" stroke-linecap="butt" d="m345.2047 228.82152l-16.15747 289.60626" fill-rule="nonzero"></path><path fill="#000000" fill-opacity="0.0" d="m380.75854 228.82152l-0.0630188 294.99213" fill-rule="nonzero"></path><path stroke="#ff9900" stroke-width="8.0" stroke-linejoin="round" stroke-linecap="butt" d="m380.75854 228.82152l-0.0630188 294.99213" fill-rule="nonzero"></path><path fill="#000000" fill-opacity="0.0" d="m413.28085 233.30446l15.212585 286.92914" fill-rule="nonzero"></path><path stroke="#ff9900" stroke-width="8.0" stroke-linejoin="round" stroke-linecap="butt" d="m413.28085 233.30446l15.212585 286.92914" fill-rule="nonzero"></path><path fill="#ff9900" d="m248.3937 360.0l0 0c0 -4.200836 3.4054565 -7.6062927 7.6062927 -7.6062927l0 0c2.0173035 0 3.9519958 0.8013611 5.378479 2.2278137c1.4264526 1.4264832 2.2278137 3.3611755 2.2278137 5.378479l0 0c0 4.200836 -3.4054565 7.6062927 -7.6062927 7.6062927l0 0c-4.200836 0 -7.6062927 -3.4054565 -7.6062927 -7.6062927z" fill-rule="nonzero"></path><path fill="#000000" fill-opacity="0.0" d="m204.43307 449.46457c20.216782 -2.020935 48.264923 -7.627228 54.695526 -26.900269" fill-rule="evenodd"></path><path stroke="#ff9900" stroke-width="8.0" stroke-linejoin="round" stroke-linecap="butt" d="m204.43307 449.46457c20.216782 -2.020935 48.264923 -7.627228 54.695526 -26.900269" fill-rule="evenodd"></path><path fill="#000000" fill-opacity="0.0" d="m221.4672 288.0l-5.3858337 -27.779541" fill-rule="nonzero"></path><path stroke="#ff9900" stroke-width="8.0" stroke-linejoin="round" stroke-linecap="butt" d="m221.4672 288.0l-5.3858337 -27.779541" fill-rule="nonzero"></path><path fill="#000000" fill-opacity="0.0" d="m209.81364 299.65616l-18.83464 -19.716522" fill-rule="nonzero"></path><path stroke="#ff9900" stroke-width="8.0" stroke-linejoin="round" stroke-linecap="butt" d="m209.81364 299.65616l-18.83464 -19.716522" fill-rule="nonzero"></path><path fill="#ff9900" d="m207.77953 259.70602l0 0c0 -4.200836 3.4054565 -7.6062927 7.606308 -7.6062927l0 0c2.0173035 0 3.9519958 0.80137634 5.3784637 2.2278442c1.4264526 1.4264526 2.227829 3.361145 2.227829 5.3784485l0 0c0 4.2008667 -3.4054565 7.6063232 -7.6062927 7.6063232l0 0c-4.2008514 0 -7.606308 -3.4054565 -7.606308 -7.6063232z" fill-rule="nonzero"></path><path fill="#ff9900" d="m181.12073 277.7139l0 0c0 -4.200836 3.4054565 -7.6062927 7.606308 -7.6062927l0 0c2.0173187 0 3.952011 0.8013916 5.3784637 2.2278442c1.4264526 1.4264526 2.227829 3.361145 2.227829 5.3784485l0 0c0 4.2008667 -3.4054565 7.6063232 -7.6062927 7.6063232l0 0c-4.2008514 0 -7.606308 -3.4054565 -7.606308 -7.6063232z" fill-rule="nonzero"></path></g></svg>

