<?xml version="1.0" standalone="yes"?>

<svg version="1.1" viewBox="0.0 0.0 960.0 720.0" fill="none" stroke="none" stroke-linecap="square" stroke-miterlimit="10" xmlns="http://www.w3.org/2000/svg" xmlns:xlink="http://www.w3.org/1999/xlink"><clipPath id="p.0"><path d="m0 0l960.0 0l0 720.0l-960.0 0l0 -720.0z" clip-rule="nonzero"></path></clipPath><g clip-path="url(#p.0)"><path fill="#000000" fill-opacity="0.0" d="m0 0l960.0 0l0 720.0l-960.0 0z" fill-rule="nonzero"></path><path fill="#000000" fill-opacity="0.0" d="m35.630093 3.9051714l0 0c3.896431 2.1569548 4.608547 8.32626 1.5905495 13.779527q-2.7322845 4.937008 -5.464567 9.874016q-3.5275593 -1.952755 -7.0551167 -3.9055119l0 0c-3.8964348 -2.1569538 -4.608549 -8.326259 -1.5905514 -13.779527l0 0c3.0179958 -5.4532685 8.623251 -8.125459 12.519686 -5.968504z" fill-rule="nonzero"></path><path stroke="#ff9900" stroke-width="1.0" stroke-linejoin="round" stroke-linecap="butt" d="m35.630093 3.9051714l0 0c3.896431 2.1569548 4.608547 8.32626 1.5905495 13.779527q-2.7322845 4.937008 -5.464567 9.874016q-3.5275593 -1.952755 -7.0551167 -3.9055119l0 0c-3.8964348 -2.1569538 -4.608549 -8.326259 -1.5905514 -13.779527l0 0c3.0179958 -5.4532685 8.623251 -8.125459 12.519686 -5.968504z" fill-rule="nonzero"></path><path fill="#000000" fill-opacity="0.0" d="m58.77699 21.938496l0 0c-0.71318436 4.592226 -5.352501 7.687454 -10.3622055 6.9133854q-4.5907173 -0.7093296 -9.197178 -1.3173008q0.76411057 -4.1910744 1.4176521 -8.399235l0 0c0.7131882 -4.592226 5.3525047 -7.687454 10.3622055 -6.9133854l0 0c5.009701 0.7740679 8.492714 5.1243095 7.7795258 9.716536z" fill-rule="nonzero"></path><path stroke="#ff9900" stroke-width="1.0" stroke-linejoin="round" stroke-linecap="butt" d="m58.77699 21.938496l0 0c-0.71318436 4.592226 -5.352501 7.687454 -10.3622055 6.9133854q-4.5907173 -0.7093296 -9.197178 -1.3173008q0.76411057 -4.1910744 1.4176521 -8.399235l0 0c0.7131882 -4.592226 5.3525047 -7.687454 10.3622055 -6.9133854l0 0c5.009701 0.7740679 8.492714 5.1243095 7.7795258 9.716536z" fill-rule="nonzero"></path><path fill="#000000" fill-opacity="0.0" d="m5.9895015 49.76751l0 0c0 -11.497959 12.105938 -20.8189 27.039368 -20.8189l0 0c14.933434 0 27.039371 9.32094 27.039371 20.8189l0 0c0 11.497959 -12.105938 20.818893 -27.039371 20.818893l0 0c-14.93343 0 -27.039368 -9.320934 -27.039368 -20.818893z" fill-rule="nonzero"></path><path stroke="#ff9900" stroke-width="1.0" stroke-linejoin="round" stroke-linecap="butt" d="m5.9895015 49.76751l0 0c0 -11.497959 12.105938 -20.8189 27.039368 -20.8189l0 0c14.933434 0 27.039371 9.32094 27.039371 20.8189l0 0c0 11.497959 -12.105938 20.818893 -27.039371 20.818893l0 0c-14.93343 0 -27.039368 -9.320934 -27.039368 -20.818893z" fill-rule="nonzero"></path><path fill="#000000" fill-opacity="0.0" d="m29.145306 28.94861l-2.2677155 40.88189" fill-rule="nonzero"></path><path stroke="#ff9900" stroke-width="1.0" stroke-linejoin="round" stroke-linecap="butt" d="m29.145306 28.94861l-2.2677155 40.88189" fill-rule="nonzero"></path><path fill="#000000" fill-opacity="0.0" d="m34.16272 28.94861l0 41.637794" fill-rule="nonzero"></path><path stroke="#ff9900" stroke-width="1.0" stroke-linejoin="round" stroke-linecap="butt" d="m34.16272 28.94861l0 41.637794" fill-rule="nonzero"></path><path fill="#000000" fill-opacity="0.0" d="m38.75232 29.581263l2.1417313 40.472443" fill-rule="nonzero"></path><path stroke="#ff9900" stroke-width="1.0" stroke-linejoin="round" stroke-linecap="butt" d="m38.75232 29.581263l2.1417313 40.472443" fill-rule="nonzero"></path><path fill="#ff9900" d="m15.483173 47.458534l0 0c0 -0.59142303 0.47944355 -1.0708656 1.0708656 -1.0708656l0 0c0.28401184 0 0.55639076 0.11282349 0.7572174 0.31364822c0.20082664 0.20082855 0.31365013 0.47320557 0.31365013 0.7572174l0 0c0 0.59142303 -0.4794445 1.0708656 -1.0708675 1.0708656l0 0c-0.5914221 0 -1.0708656 -0.4794426 -1.0708656 -1.0708656z" fill-rule="nonzero"></path><path fill="#000000" fill-opacity="0.0" d="m9.279377 60.086082c2.8525896 -0.28515244 6.8101807 -1.0761986 7.7175407 -3.7956276" fill-rule="evenodd"></path><path stroke="#ff9900" stroke-width="1.0" stroke-linejoin="round" stroke-linecap="butt" d="m9.279377 60.086082c2.8525896 -0.28515244 6.8101807 -1.0761986 7.7175407 -3.7956276" fill-rule="evenodd"></path><path fill="#000000" fill-opacity="0.0" d="m11.68326 37.30014l-0.75590515 -3.937008" fill-rule="nonzero"></path><path stroke="#ff9900" stroke-width="1.0" stroke-linejoin="round" stroke-linecap="butt" d="m11.68326 37.30014l-0.75590515 -3.937008" fill-rule="nonzero"></path><path fill="#000000" fill-opacity="0.0" d="m10.038692 38.94511l-2.645669 -2.7716522" fill-rule="nonzero"></path><path stroke="#ff9900" stroke-width="1.0" stroke-linejoin="round" stroke-linecap="butt" d="m10.038692 38.94511l-2.645669 -2.7716522" fill-rule="nonzero"></path><path fill="#ff9900" d="m9.751635 33.304604l0 0c0 -0.59142303 0.4794426 -1.0708656 1.0708656 -1.0708656l0 0c0.28401184 0 0.55639076 0.11281967 0.7572174 0.31364822c0.20082569 0.20082474 0.31364918 0.47320557 0.31364918 0.7572174l0 0c0 0.59142303 -0.47944355 1.0708656 -1.0708666 1.0708656l0 0c-0.59142303 0 -1.0708656 -0.4794426 -1.0708656 -1.0708656z" fill-rule="nonzero"></path><path fill="#ff9900" d="m5.9895015 35.845955l0 0c0 -0.59142303 0.47944307 -1.0708656 1.0708661 -1.0708656l0 0c0.28401136 0 0.5563903 0.11281967 0.75721645 0.31364822c0.20082664 0.20082474 0.31364918 0.47320557 0.31364918 0.7572174l0 0c0 0.59142303 -0.4794426 1.0708656 -1.0708656 1.0708656l0 0c-0.59142303 0 -1.0708661 -0.4794426 -1.0708661 -1.0708656z" fill-rule="nonzero"></path></g></svg>

